<svg id="visual" viewBox="0 0 960 300" width="960" height="300" xmlns="http://www.w3.org/2000/svg" xmlns:xlink="http://www.w3.org/1999/xlink" version="1.1"><rect x="0" y="0" width="960" height="300" fill="#001220"></rect><path d="M0 199L22.8 198.2C45.7 197.3 91.3 195.7 137 195C182.7 194.3 228.3 194.7 274 193.2C319.7 191.7 365.3 188.3 411.2 185.8C457 183.3 503 181.7 548.8 186.5C594.7 191.3 640.3 202.7 686 208.5C731.7 214.3 777.3 214.7 823 208.3C868.7 202 914.3 189 937.2 182.5L960 176L960 301L937.2 301C914.3 301 868.7 301 823 301C777.3 301 731.7 301 686 301C640.3 301 594.7 301 548.8 301C503 301 457 301 411.2 301C365.3 301 319.7 301 274 301C228.3 301 182.7 301 137 301C91.3 301 45.7 301 22.8 301L0 301Z" fill="#fa7268"></path><path d="M0 208L22.8 211.5C45.7 215 91.3 222 137 224.7C182.7 227.3 228.3 225.7 274 226.8C319.7 228 365.3 232 411.2 230.5C457 229 503 222 548.8 219.5C594.7 217 640.3 219 686 221.2C731.7 223.3 777.3 225.7 823 228.2C868.7 230.7 914.3 233.3 937.2 234.7L960 236L960 301L937.2 301C914.3 301 868.7 301 823 301C777.3 301 731.7 301 686 301C640.3 301 594.7 301 548.8 301C503 301 457 301 411.2 301C365.3 301 319.7 301 274 301C228.3 301 182.7 301 137 301C91.3 301 45.7 301 22.8 301L0 301Z" fill="#ef5f67"></path><path d="M0 223L22.8 223.5C45.7 224 91.3 225 137 225.8C182.7 226.7 228.3 227.3 274 229.8C319.7 232.3 365.3 236.7 411.2 240.8C457 245 503 249 548.8 250.5C594.7 252 640.3 251 686 250.2C731.7 249.3 777.3 248.7 823 246.3C868.7 244 914.3 240 937.2 238L960 236L960 301L937.2 301C914.3 301 868.7 301 823 301C777.3 301 731.7 301 686 301C640.3 301 594.7 301 548.8 301C503 301 457 301 411.2 301C365.3 301 319.7 301 274 301C228.3 301 182.7 301 137 301C91.3 301 45.7 301 22.8 301L0 301Z" fill="#e34c67"></path><path d="M0 248L22.8 246.8C45.7 245.7 91.3 243.3 137 246.3C182.7 249.3 228.3 257.7 274 257.8C319.7 258 365.3 250 411.2 249.8C457 249.7 503 257.3 548.8 261.2C594.7 265 640.3 265 686 263.7C731.7 262.3 777.3 259.7 823 258.2C868.7 256.7 914.3 256.3 937.2 256.2L960 256L960 301L937.2 301C914.3 301 868.7 301 823 301C777.3 301 731.7 301 686 301C640.3 301 594.7 301 548.8 301C503 301 457 301 411.2 301C365.3 301 319.7 301 274 301C228.3 301 182.7 301 137 301C91.3 301 45.7 301 22.8 301L0 301Z" fill="#d53867"></path><path d="M0 279L22.8 278.3C45.7 277.7 91.3 276.3 137 276C182.7 275.7 228.3 276.3 274 276.8C319.7 277.3 365.3 277.7 411.2 279.2C457 280.7 503 283.3 548.8 281.7C594.7 280 640.3 274 686 271C731.7 268 777.3 268 823 267.8C868.7 267.7 914.3 267.3 937.2 267.2L960 267L960 301L937.2 301C914.3 301 868.7 301 823 301C777.3 301 731.7 301 686 301C640.3 301 594.7 301 548.8 301C503 301 457 301 411.2 301C365.3 301 319.7 301 274 301C228.3 301 182.7 301 137 301C91.3 301 45.7 301 22.8 301L0 301Z" fill="#c62368"></path></svg>