<svg id="visual" viewBox="0 0 960 300" width="960" height="300" xmlns="http://www.w3.org/2000/svg" xmlns:xlink="http://www.w3.org/1999/xlink" version="1.1"><rect x="0" y="0" width="960" height="300" fill="#FFFFFF"></rect><path d="M0 194L22.8 192.8C45.7 191.7 91.3 189.3 137 187.7C182.7 186 228.3 185 274 190.8C319.7 196.7 365.3 209.3 411.2 209.2C457 209 503 196 548.8 195.8C594.7 195.7 640.3 208.3 686 207.3C731.7 206.3 777.3 191.7 823 184.5C868.7 177.3 914.3 177.7 937.2 177.8L960 178L960 301L937.2 301C914.3 301 868.7 301 823 301C777.3 301 731.7 301 686 301C640.3 301 594.7 301 548.8 301C503 301 457 301 411.2 301C365.3 301 319.7 301 274 301C228.3 301 182.7 301 137 301C91.3 301 45.7 301 22.8 301L0 301Z" fill="#ff0066"></path><path d="M0 210L22.8 214.8C45.7 219.7 91.3 229.3 137 228.3C182.7 227.3 228.3 215.7 274 215.2C319.7 214.7 365.3 225.3 411.2 228.8C457 232.3 503 228.7 548.8 225.2C594.7 221.7 640.3 218.3 686 218.2C731.7 218 777.3 221 823 218.5C868.7 216 914.3 208 937.2 204L960 200L960 301L937.2 301C914.3 301 868.7 301 823 301C777.3 301 731.7 301 686 301C640.3 301 594.7 301 548.8 301C503 301 457 301 411.2 301C365.3 301 319.7 301 274 301C228.3 301 182.7 301 137 301C91.3 301 45.7 301 22.8 301L0 301Z" fill="#b71b7d"></path><path d="M0 220L22.8 223.8C45.7 227.7 91.3 235.3 137 235C182.7 234.7 228.3 226.3 274 226C319.7 225.7 365.3 233.3 411.2 238.8C457 244.3 503 247.7 548.8 246.8C594.7 246 640.3 241 686 239.2C731.7 237.3 777.3 238.7 823 239.3C868.7 240 914.3 240 937.2 240L960 240L960 301L937.2 301C914.3 301 868.7 301 823 301C777.3 301 731.7 301 686 301C640.3 301 594.7 301 548.8 301C503 301 457 301 411.2 301C365.3 301 319.7 301 274 301C228.3 301 182.7 301 137 301C91.3 301 45.7 301 22.8 301L0 301Z" fill="#672c76"></path><path d="M0 261L22.8 261.8C45.7 262.7 91.3 264.3 137 264.3C182.7 264.3 228.3 262.7 274 258.7C319.7 254.7 365.3 248.3 411.2 245.3C457 242.3 503 242.7 548.8 242.5C594.7 242.3 640.3 241.7 686 246C731.7 250.3 777.3 259.7 823 262.8C868.7 266 914.3 263 937.2 261.5L960 260L960 301L937.2 301C914.3 301 868.7 301 823 301C777.3 301 731.7 301 686 301C640.3 301 594.7 301 548.8 301C503 301 457 301 411.2 301C365.3 301 319.7 301 274 301C228.3 301 182.7 301 137 301C91.3 301 45.7 301 22.8 301L0 301Z" fill="#222553"></path><path d="M0 280L22.8 278.5C45.7 277 91.3 274 137 274.5C182.7 275 228.3 279 274 280.2C319.7 281.3 365.3 279.7 411.2 278.3C457 277 503 276 548.8 276.5C594.7 277 640.3 279 686 277.2C731.7 275.3 777.3 269.7 823 267.3C868.7 265 914.3 266 937.2 266.5L960 267L960 301L937.2 301C914.3 301 868.7 301 823 301C777.3 301 731.7 301 686 301C640.3 301 594.7 301 548.8 301C503 301 457 301 411.2 301C365.3 301 319.7 301 274 301C228.3 301 182.7 301 137 301C91.3 301 45.7 301 22.8 301L0 301Z" fill="#001122"></path></svg>